<svg width="21" height="20" viewBox="0 0 21 20" fill="none" xmlns="http://www.w3.org/2000/svg">
<path d="M0.768111 14.0215C0.0335864 14.4456 -0.21808 15.3848 0.205998 16.1193C0.630075 16.8539 1.56931 17.1055 2.30383 16.6814L0.768111 14.0215ZM20.7523 5.5108C20.9719 4.69154 20.4857 3.84945 19.6664 3.62993L6.31589 0.0526639C5.49664 -0.166855 4.65454 0.319327 4.43503 1.13858C4.21551 1.95784 4.70169 2.79993 5.52094 3.01945L17.3881 6.19924L14.2083 18.0664C13.9888 18.8856 14.475 19.7277 15.2942 19.9473C16.1135 20.1668 16.9556 19.6806 17.1751 18.8613L20.7523 5.5108ZM2.30383 16.6814L20.0368 6.4433L18.5011 3.78335L0.768111 14.0215L2.30383 16.6814Z" fill="#FF8181"/>
</svg>
