<svg width="199" height="209" viewBox="0 0 199 209" fill="none" xmlns="http://www.w3.org/2000/svg">
<path d="M111.228 66.6289L111.396 67.5342L112.064 66.9004L159.197 22.1758L131.226 80.8232L130.83 81.6543L131.743 81.5342L196.163 73.0547L139.062 104.061L138.253 104.5L139.062 104.939L196.163 135.944L131.743 127.466L130.83 127.346L131.226 128.177L159.197 186.823L112.064 142.1L111.396 141.466L111.228 142.371L99.3854 206.259L87.5426 142.371L87.3746 141.466L86.7067 142.1L39.5729 186.823L67.5446 128.177L67.941 127.346L67.028 127.466L2.60706 135.944L59.7086 104.939L60.5182 104.5L59.7086 104.061L2.60706 73.0547L67.028 81.5342L67.941 81.6543L67.5446 80.8232L39.5729 22.1758L86.7067 66.9004L87.3746 67.5342L87.5426 66.6289L99.3854 2.74023L111.228 66.6289Z" stroke="black"/>
</svg>
