<svg width="284" height="50" viewBox="0 0 284 50" fill="none" xmlns="http://www.w3.org/2000/svg">
<path d="M2.4604 15.3747C3.4149 15.3747 4.18868 14.6009 4.18868 13.6464C4.18868 12.6919 3.4149 11.9181 2.4604 11.9181C1.5059 11.9181 0.732124 12.6919 0.732124 13.6464C0.732124 14.6009 1.5059 15.3747 2.4604 15.3747Z" fill="#E14242"/>
<path d="M1.72828 21.2193C2.68278 21.2193 3.45655 20.4455 3.45655 19.491C3.45655 18.5365 2.68278 17.7628 1.72828 17.7628C0.773776 17.7628 0 18.5365 0 19.491C0 20.4455 0.773776 21.2193 1.72828 21.2193Z" fill="#E14242"/>
<path d="M4.58474 10.2976C5.53925 10.2976 6.31302 9.5238 6.31302 8.5693C6.31302 7.6148 5.53925 6.84103 4.58474 6.84103C3.63024 6.84103 2.85647 7.6148 2.85647 8.5693C2.85647 9.5238 3.63024 10.2976 4.58474 10.2976Z" fill="#E14242"/>
<path d="M26.5483 13.4424C27.5028 13.4424 28.2765 12.6686 28.2765 11.7141C28.2765 10.7596 27.5028 9.98586 26.5483 9.98586C25.5938 9.98586 24.82 10.7596 24.82 11.7141C24.82 12.6686 25.5938 13.4424 26.5483 13.4424Z" fill="#E14242"/>
<path d="M36.4378 16.8268C37.3923 16.8268 38.1661 16.053 38.1661 15.0985C38.1661 14.144 37.3923 13.3703 36.4378 13.3703C35.4833 13.3703 34.7095 14.144 34.7095 15.0985C34.7095 16.053 35.4833 16.8268 36.4378 16.8268Z" fill="#E14242"/>
<path d="M35.7297 23.7996C36.6842 23.7996 37.458 23.0258 37.458 22.0713C37.458 21.1168 36.6842 20.343 35.7297 20.343C34.7752 20.343 34.0014 21.1168 34.0014 22.0713C34.0014 23.0258 34.7752 23.7996 35.7297 23.7996Z" fill="#E14242"/>
<path d="M31.325 34.3973C32.2795 34.3973 33.0533 33.6235 33.0533 32.669C33.0533 31.7145 32.2795 30.9408 31.325 30.9408C30.3705 30.9408 29.5967 31.7145 29.5967 32.669C29.5967 33.6235 30.3705 34.3973 31.325 34.3973Z" fill="#E14242"/>
<path d="M28.7806 5.74894C29.7351 5.74894 30.5089 4.97516 30.5089 4.02066C30.5089 3.06616 29.7351 2.29238 28.7806 2.29238C27.8261 2.29238 27.0523 3.06616 27.0523 4.02066C27.0523 4.97516 27.8261 5.74894 28.7806 5.74894Z" fill="#E14242"/>
<path d="M33.1733 11.0656C34.1278 11.0656 34.9016 10.2918 34.9016 9.33732C34.9016 8.38282 34.1278 7.60905 33.1733 7.60905C32.2188 7.60905 31.445 8.38282 31.445 9.33732C31.445 10.2918 32.2188 11.0656 33.1733 11.0656Z" fill="#E14242"/>
<path d="M17.3188 16.6707C18.2733 16.6707 19.0471 15.8969 19.0471 14.9424C19.0471 13.9879 18.2733 13.2141 17.3188 13.2141C16.3643 13.2141 15.5905 13.9879 15.5905 14.9424C15.5905 15.8969 16.3643 16.6707 17.3188 16.6707Z" fill="#E14242"/>
<path d="M24.3159 3.45655C25.2704 3.45655 26.0442 2.68278 26.0442 1.72828C26.0442 0.773776 25.2704 0 24.3159 0C23.3614 0 22.5876 0.773776 22.5876 1.72828C22.5876 2.68278 23.3614 3.45655 24.3159 3.45655Z" fill="#E14242"/>
<path d="M9.3855 5.74894C10.34 5.74894 11.1138 4.97516 11.1138 4.02066C11.1138 3.06616 10.34 2.29238 9.3855 2.29238C8.43099 2.29238 7.65722 3.06616 7.65722 4.02066C7.65722 4.97516 8.43099 5.74894 9.3855 5.74894Z" fill="#E14242"/>
<path d="M11.8819 46.0513C11.4498 46.0513 11.1138 45.7152 11.1138 45.2951V24.0277L2.83246 15.0983C2.54441 14.7863 2.55641 14.2942 2.85646 14.0061C3.18051 13.7181 3.66059 13.7301 3.94864 14.0541L12.446 23.2116C12.578 23.3436 12.65 23.5357 12.65 23.7157V45.2831C12.65 45.7272 12.314 46.0513 11.8819 46.0513Z" fill="#E14242"/>
<path d="M16.4786 49.9998C16.0466 49.9998 15.7105 49.6518 15.7105 49.2197V20.7871L4.04465 9.12127C3.7446 8.83323 3.7446 8.32915 4.04465 8.0411C4.34469 7.74105 4.82477 7.74105 5.12482 8.0411L17.0187 19.935C17.1627 20.079 17.2468 20.2711 17.2468 20.4751V49.2197C17.2468 49.6398 16.8987 49.9998 16.4786 49.9998Z" fill="#E14242"/>
<path d="M21.6035 50.0002C21.1714 50.0002 20.8353 49.6521 20.8353 49.2201V10.8259C20.8353 10.6219 20.9073 10.4179 21.0634 10.2858L26.8363 4.51291C27.1363 4.22486 27.6164 4.22486 27.9165 4.51291C28.2165 4.81296 28.2165 5.30504 27.9165 5.59308L22.3716 11.15V49.2201C22.3716 49.6401 22.0355 50.0002 21.6035 50.0002Z" fill="#E14242"/>
<path d="M26.5002 46.0513C26.0682 46.0513 25.7201 45.7273 25.7201 45.2952V25.132C25.7201 24.9279 25.8161 24.7359 25.9482 24.6039L35.9458 14.6063C36.2578 14.2942 36.7379 14.2942 37.0379 14.6063C37.338 14.8943 37.338 15.3864 37.0379 15.6865L27.2684 25.456V45.2952C27.2684 45.7273 26.9323 46.0513 26.5002 46.0513Z" fill="#E14242"/>
<path d="M33.1853 19.2269C32.9813 19.2269 32.7892 19.1669 32.6452 19.0228L26.2962 12.6738C25.9962 12.3618 25.9962 11.8817 26.2962 11.5816C26.5842 11.2816 27.0763 11.2816 27.3884 11.5816L33.7254 17.9187C34.0134 18.2307 34.0134 18.6988 33.7254 19.0228C33.5694 19.1669 33.3653 19.2269 33.1853 19.2269Z" fill="#E14242"/>
<path d="M11.3058 15.7227C11.1018 15.7227 10.9097 15.6507 10.7537 15.4946C10.4537 15.1706 10.4537 14.7025 10.7537 14.3905L23.8598 1.28435C24.1599 0.972303 24.6519 0.972303 24.952 1.28435C25.252 1.5844 25.252 2.06448 24.952 2.36453L11.8459 15.4946C11.6899 15.6386 11.4978 15.7227 11.3058 15.7227Z" fill="#E14242"/>
<path d="M15.5785 11.4258C15.3865 11.4258 15.1944 11.3538 15.0504 11.1978L9.67355 5.82095C9.3735 5.5329 9.3735 5.02882 9.67355 4.74078C9.9616 4.45273 10.4537 4.45273 10.7537 4.74078L16.1306 10.1176C16.4186 10.4057 16.4186 10.9098 16.1306 11.1978C15.9746 11.3538 15.7825 11.4258 15.5785 11.4258Z" fill="#E14242"/>
<path d="M15.6145 3.76834C16.569 3.76834 17.3428 2.99457 17.3428 2.04007C17.3428 1.08557 16.569 0.31179 15.6145 0.31179C14.66 0.31179 13.8862 1.08557 13.8862 2.04007C13.8862 2.99457 14.66 3.76834 15.6145 3.76834Z" fill="#E14242"/>
<path d="M19.6952 7.30926C19.5031 7.30926 19.3111 7.23725 19.1551 7.08123L15.9025 3.82871C15.6025 3.54066 15.6025 3.06058 15.9025 2.76054C16.2026 2.46049 16.6947 2.46049 16.9947 2.76054L20.2472 6.01306C20.5473 6.3011 20.5473 6.80518 20.2472 7.09323C20.0912 7.23725 19.8872 7.30926 19.6952 7.30926Z" fill="#E14242"/>
<path d="M21.5074 19.8391C21.3034 19.8391 21.1114 19.7671 20.9674 19.5991L17.3188 15.9625C17.0187 15.6744 17.0187 15.1944 17.3188 14.8943C17.6068 14.5943 18.0989 14.5943 18.411 14.8943L22.0475 18.5429C22.3476 18.831 22.3476 19.323 22.0475 19.6111C21.8915 19.7671 21.6995 19.8391 21.5074 19.8391Z" fill="#E14242"/>
<path d="M26.4402 20.3196C27.3947 20.3196 28.1685 19.5458 28.1685 18.5913C28.1685 17.6368 27.3947 16.863 26.4402 16.863C25.4857 16.863 24.712 17.6368 24.712 18.5913C24.712 19.5458 25.4857 20.3196 26.4402 20.3196Z" fill="#E14242"/>
<path d="M29.8544 22.3012C29.6624 22.3012 29.4584 22.2172 29.3144 22.0612L26.6139 19.3728C26.3139 19.0607 26.3139 18.5926 26.6139 18.2806C26.914 17.9805 27.406 17.9805 27.7061 18.2806L30.4065 20.969C30.7186 21.2811 30.7186 21.7612 30.4065 22.0612C30.2505 22.2172 30.0585 22.3012 29.8544 22.3012Z" fill="#E14242"/>
<path d="M28.6966 14.7623C28.4926 14.7623 28.3005 14.6903 28.1565 14.5223C27.8565 14.2342 27.8565 13.7421 28.1565 13.4301L32.3212 9.27741C32.6332 8.96536 33.1133 8.96536 33.4133 9.27741C33.7134 9.57746 33.7134 10.0575 33.4133 10.3576L29.2487 14.5223C29.0927 14.6903 28.8886 14.7623 28.6966 14.7623Z" fill="#E14242"/>
<path d="M11.8699 30.413C11.6779 30.413 11.4858 30.341 11.3298 30.1849L1.17618 20.0193C0.876137 19.7313 0.876137 19.2512 1.17618 18.9511C1.47623 18.6511 1.95631 18.6511 2.26836 18.9511L12.422 29.1048C12.722 29.3928 12.722 29.8969 12.422 30.1849C12.278 30.341 12.0739 30.413 11.8699 30.413Z" fill="#E14242"/>
<path d="M4.88478 31.049C5.83928 31.049 6.61306 30.2752 6.61306 29.3207C6.61306 28.3662 5.83928 27.5925 4.88478 27.5925C3.93028 27.5925 3.1565 28.3662 3.1565 29.3207C3.1565 30.2752 3.93028 31.049 4.88478 31.049Z" fill="#E14242"/>
<path d="M11.8579 37.062C11.6539 37.062 11.4618 36.978 11.3058 36.822L4.33268 29.8609C4.03263 29.5608 4.03263 29.0687 4.33268 28.7807C4.63273 28.4686 5.1128 28.4686 5.42485 28.7807L12.386 35.7418C12.686 36.0298 12.686 36.5339 12.386 36.834C12.2419 36.978 12.0499 37.062 11.8579 37.062Z" fill="#E14242"/>
<path d="M26.5842 32.2011C26.3802 32.2011 26.1882 32.1291 26.0322 31.9731C25.7441 31.6731 25.7441 31.181 26.0322 30.8929L34.7095 22.2275C34.9976 21.9155 35.4897 21.9155 35.7897 22.2275C36.0778 22.5156 36.0778 22.9957 35.7897 23.3077L27.1243 31.9851C26.9803 32.1291 26.7763 32.2011 26.5842 32.2011Z" fill="#E14242"/>
<path d="M26.5002 38.2621C26.3082 38.2621 26.1042 38.202 25.9602 38.046C25.6601 37.734 25.6601 37.2659 25.9602 36.9538L30.7969 32.1171C31.085 31.829 31.5771 31.829 31.8891 32.1171C32.1772 32.4291 32.1772 32.9092 31.8891 33.2213L27.0523 38.046C26.8963 38.214 26.6923 38.2621 26.5002 38.2621Z" fill="#E14242"/>
<path d="M67.6557 27.6209C67.1532 28.6618 66.4353 29.4514 65.4303 29.918L68.4453 36.5582C68.553 36.7736 68.4094 36.9889 68.1941 36.9889H63.7793C63.6357 36.9889 63.5639 36.9171 63.528 36.8095L60.7284 30.7077H58.8978V36.6659C58.8978 36.8454 58.7543 36.9889 58.5748 36.9889H54.4471C54.3035 36.9889 54.1959 36.8454 54.1959 36.6659V13.6227C54.1959 13.4432 54.3035 13.2996 54.4471 13.2996H61.9128C65.8969 13.2996 68.3018 15.5609 68.3018 19.7603V24.2828C68.3018 25.5391 68.0864 26.7236 67.6557 27.6209ZM63.5998 23.1702V20.8371C63.5998 18.3246 62.6666 18.0734 59.9387 18.0734H58.8978V26.0057H59.9387C62.2 26.0057 63.528 25.9698 63.5998 23.1702ZM56.816 34.7995V28.6618H61.9846L64.9996 34.8713C65.0714 35.0507 65.5021 34.9789 65.3944 34.6559L62.3794 28.5541C65.1791 28.1593 66.1482 26.6877 66.1482 24.0316V19.545C66.1482 15.5968 62.5589 15.2737 61.4462 15.2737H56.6007C56.5289 15.2737 56.3853 15.3814 56.3853 15.4891V34.7995C56.3853 35.0507 56.816 35.0507 56.816 34.7995ZM65.7175 19.545V24.0316C65.7175 27.6927 63.3844 28.1952 61.1232 28.1952H56.816V15.7403H61.4462C65.3227 15.7403 65.7175 18.3605 65.7175 19.545ZM82.4436 12.9766C85.5304 12.9766 87.6839 13.6586 89.0479 15.1302C90.1246 16.3146 90.6271 18.0016 90.6271 20.4064V29.8462C90.6271 32.3229 90.1246 34.0457 89.0479 35.1943C87.648 36.63 85.5304 37.3479 82.4436 37.3479C79.2491 37.3479 77.1673 36.63 75.8034 35.1943C74.7625 34.0457 74.1882 32.3229 74.1882 29.8462V20.4064C74.1882 18.0016 74.7625 16.3146 75.8034 15.0943C77.2032 13.6586 79.3209 12.9766 82.4436 12.9766ZM85.8534 28.7695V21.5909C85.8534 18.4323 84.1664 17.7862 82.623 17.7862H82.1923C79.8952 17.7862 78.9979 19.2578 78.9979 21.5909V28.7695C78.9979 31.928 80.6848 32.61 82.1923 32.61H82.623C84.9202 32.61 85.8175 31.0666 85.8534 28.7695ZM76.4495 20.6577V29.5591C76.4495 31.2461 76.8802 32.6459 77.8852 33.6868C78.8184 34.62 80.2541 35.1225 82.0128 35.1225H82.9461C86.32 35.1225 88.5095 32.9689 88.5095 29.5591V20.6577C88.5095 16.9966 86.5713 15.0225 82.9461 15.0225H82.0128C78.3518 15.0225 76.4495 16.9966 76.4495 20.6577ZM82.9461 34.6559H82.0128C80.3259 34.6559 79.0696 34.2252 78.1723 33.3279C77.275 32.4305 76.8084 31.1743 76.8084 29.5591V20.6577C76.8084 17.2478 78.6389 15.4532 82.0128 15.4532H82.9461C86.3559 15.4532 88.0429 17.2119 88.0429 20.6577V29.5591C88.0429 31.0666 87.5762 32.4305 86.6071 33.3637C85.6739 34.1534 84.4177 34.6559 82.9461 34.6559ZM108.322 28.6977V13.6227C108.322 13.4432 108.466 13.2996 108.645 13.2996H112.737C112.917 13.2996 113.06 13.4432 113.06 13.6227V29.8462C113.06 35.0148 110.225 37.3479 104.877 37.3479C99.8157 37.3479 96.6572 35.3379 96.6572 29.8462V13.6227C96.6572 13.4432 96.8007 13.2996 96.9802 13.2996H101.108C101.287 13.2996 101.431 13.4432 101.431 13.6227V28.6977C101.431 31.8204 103.19 32.5023 104.661 32.5023H105.092C107.317 32.5023 108.322 30.9948 108.322 28.6977ZM98.8825 15.5968V29.5591C98.8825 32.7895 101.072 35.1225 104.482 35.1225H105.379C108.789 35.1225 111.014 32.6818 111.014 29.5591V15.5968C111.014 15.2737 110.584 15.2378 110.584 15.5968V29.5591C110.584 32.5023 108.466 34.6559 105.379 34.6559H104.482C101.467 34.6559 99.3132 32.7177 99.3132 29.5591V15.5968C99.3132 15.2737 98.8825 15.2737 98.8825 15.5968ZM129.32 13.6227C129.32 13.4432 129.463 13.2996 129.643 13.2996H133.77C133.95 13.2996 134.093 13.4432 134.093 13.6227V36.6659C134.093 36.8454 133.95 36.9889 133.77 36.9889H129.786C129.643 36.9889 129.499 36.9171 129.463 36.8095L124.223 25.0007V36.6659C124.223 36.8454 124.079 36.9889 123.9 36.9889H119.808C119.629 36.9889 119.521 36.8454 119.521 36.6659V13.6227C119.521 13.4432 119.629 13.2996 119.808 13.2996H124.043C124.187 13.2996 124.259 13.4073 124.295 13.4791L129.32 25.0725V13.6227ZM131.904 34.8354V15.4532C131.904 15.2019 131.437 15.1302 131.437 15.4532V33.9021L122.069 15.3814C121.962 15.2378 121.674 15.2378 121.674 15.4532V34.7995C121.674 35.1225 122.105 35.1225 122.105 34.7995V16.3864L131.437 34.8713C131.581 35.1225 131.904 35.0507 131.904 34.8354ZM150.102 13.2996C152.542 13.2996 154.373 13.9816 155.593 15.3096C156.67 16.4941 157.208 18.2528 157.208 20.4064V29.918C157.208 34.2611 154.696 36.9889 150.102 36.9889H141.128C140.949 36.9889 140.841 36.8454 140.841 36.6659V13.6227C140.841 13.4432 140.949 13.2996 141.128 13.2996H150.102ZM152.506 28.8412V21.4832C152.506 19.2219 151.322 17.7862 148.81 17.7862H145.579V32.5023H148.81C150.963 32.5023 152.506 31.1025 152.506 28.8412ZM143.031 15.4891V34.7995C143.031 34.943 143.174 34.9789 143.246 34.9789H149.097C153.224 34.9789 155.091 32.5023 155.091 30.2052V21.0166C155.091 17.2119 153.081 15.2737 148.989 15.2737H143.246C143.174 15.2737 143.031 15.3096 143.031 15.4891ZM154.66 21.0166V30.2052C154.66 33.0766 151.789 34.5841 149.097 34.5841H143.461V15.7403H148.989C152.758 15.7403 154.66 17.4273 154.66 21.0166ZM172.75 13.2996C175.191 13.2996 177.021 13.9816 178.242 15.3096C179.318 16.4941 179.857 18.2528 179.857 20.4064V29.918C179.857 34.2611 177.344 36.9889 172.75 36.9889H163.777C163.597 36.9889 163.49 36.8454 163.49 36.6659V13.6227C163.49 13.4432 163.597 13.2996 163.777 13.2996H172.75ZM175.155 28.8412V21.4832C175.155 19.2219 173.97 17.7862 171.458 17.7862H168.228V32.5023H171.458C173.612 32.5023 175.155 31.1025 175.155 28.8412ZM165.679 15.4891V34.7995C165.679 34.943 165.823 34.9789 165.895 34.9789H171.745C175.873 34.9789 177.739 32.5023 177.739 30.2052V21.0166C177.739 17.2119 175.729 15.2737 171.637 15.2737H165.895C165.823 15.2737 165.679 15.3096 165.679 15.4891ZM177.308 21.0166V30.2052C177.308 33.0766 174.437 34.5841 171.745 34.5841H166.11V15.7403H171.637C175.406 15.7403 177.308 17.4273 177.308 21.0166ZM186.425 36.9889C186.246 36.9889 186.138 36.8454 186.138 36.6659V13.6227C186.138 13.4432 186.246 13.2996 186.425 13.2996H190.517C190.697 13.2996 190.84 13.4432 190.84 13.6227V36.6659C190.84 36.8454 190.697 36.9889 190.517 36.9889H186.425ZM188.292 15.4532V34.7995C188.292 35.1225 188.687 35.1225 188.687 34.7995V15.4532C188.687 15.2019 188.292 15.2019 188.292 15.4532ZM204.874 28.3746C204.695 28.3746 204.551 28.2311 204.551 28.0516V24.2111C204.551 24.0316 204.695 23.888 204.874 23.888H213.094C213.273 23.888 213.417 24.0316 213.417 24.2111V29.8462C213.417 35.1225 210.581 37.3479 205.233 37.3479C200.244 37.3479 196.978 35.3738 196.978 29.8462V20.4064C196.978 15.2019 199.885 12.9766 205.233 12.9766C210.258 12.9766 213.417 14.9148 213.417 20.4064V21.1602C213.417 21.3396 213.273 21.4832 213.094 21.4832H208.966C208.787 21.4832 208.643 21.3396 208.643 21.1602V20.6936C208.643 18.5041 207.243 17.7862 205.413 17.7862H204.982C203.797 17.7862 203.008 18.1093 202.469 18.8271C201.967 19.5091 201.787 20.4064 201.787 21.5909V28.6977C201.787 31.8204 203.474 32.5023 204.982 32.5023H205.413C207.602 32.5023 208.643 30.9948 208.643 28.6977V28.3746H204.874ZM199.167 29.595C199.167 33.5791 201.105 35.0507 205.197 35.0507C209.504 35.0507 211.263 33.2561 211.263 28.8412V26.1493C211.263 26.0416 211.191 25.898 211.12 25.898H206.13C205.807 25.898 205.879 26.3646 206.13 26.3646H210.832V28.8412C210.832 32.6818 209.361 34.6559 205.197 34.6559C201.752 34.6559 199.598 33.4355 199.598 29.595V20.9448C199.598 17.2478 201.285 15.5968 205.197 15.5968C208.105 15.5968 210.761 17.2119 210.545 19.6886C210.545 19.9757 210.94 20.0475 211.012 19.7244C211.012 16.5659 208.14 15.2019 205.197 15.2019C201.608 15.2019 199.167 16.4941 199.167 20.9448V29.595ZM219.806 36.9889C219.626 36.9889 219.519 36.8454 219.519 36.6659V13.6227C219.519 13.4432 219.626 13.2996 219.806 13.2996H223.897C224.077 13.2996 224.22 13.4432 224.22 13.6227V36.6659C224.22 36.8454 224.077 36.9889 223.897 36.9889H219.806ZM221.672 15.4532V34.7995C221.672 35.1225 222.067 35.1225 222.067 34.7995V15.4532C222.067 15.2019 221.672 15.2019 221.672 15.4532ZM234.522 17.7862H229.425C229.245 17.7862 229.102 17.6427 229.102 17.4632V13.6227C229.102 13.4432 229.245 13.2996 229.425 13.2996H244.392C244.572 13.2996 244.715 13.4432 244.715 13.6227V17.4632C244.715 17.6427 244.572 17.7862 244.392 17.7862H239.296V36.6659C239.296 36.8454 239.152 36.9889 238.972 36.9889H234.845C234.665 36.9889 234.522 36.8454 234.522 36.6659V17.7862ZM242.203 15.2737H231.363C231.112 15.2737 231.112 15.7403 231.363 15.7403H236.675V34.7636C236.675 35.0148 237.142 35.0148 237.142 34.7636V15.7403H242.203C242.562 15.7403 242.526 15.2737 242.203 15.2737ZM254.227 13.515C254.263 13.4073 254.335 13.2996 254.478 13.2996H258.929C259.072 13.2996 259.144 13.4073 259.18 13.515L265.39 36.5941C265.426 36.8095 265.282 36.9889 265.067 36.9889H260.975C260.867 36.9889 260.759 36.9171 260.724 36.7736L259.324 31.7486H254.083L252.719 36.7736C252.684 36.9171 252.612 36.9889 252.468 36.9889H248.34C248.125 36.9889 247.982 36.8095 248.017 36.5941L254.227 13.515ZM255.232 27.2978H258.211L256.668 21.878L255.232 27.2978ZM260.759 29.4155L262.411 34.7995C262.482 35.0148 262.877 34.9789 262.769 34.6918L257.027 15.5968C256.919 15.1302 256.309 15.0943 256.201 15.5968L250.638 34.6918C250.53 34.943 250.925 35.0507 251.032 34.8354L252.612 29.4155H260.759ZM252.719 28.9489L256.632 15.7403L260.616 28.9489H252.719ZM274.794 13.2996C274.973 13.2996 275.117 13.4432 275.117 13.6227V32.4664H282.869C283.049 32.4664 283.193 32.61 283.193 32.7895V36.6659C283.193 36.8454 283.049 36.9889 282.869 36.9889H270.702C270.522 36.9889 270.415 36.8454 270.415 36.6659V13.6227C270.415 13.4432 270.522 13.2996 270.702 13.2996H274.794ZM272.568 15.4891V34.7995C272.568 34.8713 272.64 34.9789 272.784 34.9789H281.075C281.362 34.9789 281.362 34.5123 281.075 34.5123H272.963V15.4891C272.963 15.2378 272.568 15.2019 272.568 15.4891Z" fill="#393E46"/>
</svg>
