<svg width="196" height="35" viewBox="0 0 196 35" fill="none" xmlns="http://www.w3.org/2000/svg">
<path d="M1.70159 11.0536C2.36171 11.0536 2.89684 10.5184 2.89684 9.85833C2.89684 9.19822 2.36171 8.66309 1.70159 8.66309C1.04148 8.66309 0.506348 9.19822 0.506348 9.85833C0.506348 10.5184 1.04148 11.0536 1.70159 11.0536Z" fill="#E14242"/>
<path d="M1.19525 15.0965C1.85536 15.0965 2.39049 14.5614 2.39049 13.9013C2.39049 13.2412 1.85536 12.7061 1.19525 12.7061C0.535129 12.7061 0 13.2412 0 13.9013C0 14.5614 0.535129 15.0965 1.19525 15.0965Z" fill="#E14242"/>
<path d="M3.17083 7.54186C3.83095 7.54186 4.36608 7.00673 4.36608 6.34661C4.36608 5.6865 3.83095 5.15137 3.17083 5.15137C2.51072 5.15137 1.97559 5.6865 1.97559 6.34661C1.97559 7.00673 2.51072 7.54186 3.17083 7.54186Z" fill="#E14242"/>
<path d="M18.3603 9.71764C19.0204 9.71764 19.5555 9.18251 19.5555 8.52239C19.5555 7.86228 19.0204 7.32715 18.3603 7.32715C17.7002 7.32715 17.165 7.86228 17.165 8.52239C17.165 9.18251 17.7002 9.71764 18.3603 9.71764Z" fill="#E14242"/>
<path d="M25.1996 12.0585C25.8598 12.0585 26.3949 11.5233 26.3949 10.8632C26.3949 10.2031 25.8598 9.66797 25.1996 9.66797C24.5395 9.66797 24.0044 10.2031 24.0044 10.8632C24.0044 11.5233 24.5395 12.0585 25.1996 12.0585Z" fill="#E14242"/>
<path d="M24.7101 16.8797C25.3703 16.8797 25.9054 16.3446 25.9054 15.6845C25.9054 15.0244 25.3703 14.4893 24.7101 14.4893C24.05 14.4893 23.5149 15.0244 23.5149 15.6845C23.5149 16.3446 24.05 16.8797 24.7101 16.8797Z" fill="#E14242"/>
<path d="M21.664 24.2098C22.3241 24.2098 22.8592 23.6747 22.8592 23.0146C22.8592 22.3545 22.3241 21.8193 21.664 21.8193C21.0039 21.8193 20.4688 22.3545 20.4688 23.0146C20.4688 23.6747 21.0039 24.2098 21.664 24.2098Z" fill="#E14242"/>
<path d="M19.9042 4.39733C20.5643 4.39733 21.0995 3.8622 21.0995 3.20208C21.0995 2.54197 20.5643 2.00684 19.9042 2.00684C19.2441 2.00684 18.709 2.54197 18.709 3.20208C18.709 3.8622 19.2441 4.39733 19.9042 4.39733Z" fill="#E14242"/>
<path d="M22.9421 8.07408C23.6022 8.07408 24.1373 7.53895 24.1373 6.87884C24.1373 6.21872 23.6022 5.68359 22.9421 5.68359C22.282 5.68359 21.7468 6.21872 21.7468 6.87884C21.7468 7.53895 22.282 8.07408 22.9421 8.07408Z" fill="#E14242"/>
<path d="M11.9772 11.9501C12.6373 11.9501 13.1725 11.4149 13.1725 10.7548C13.1725 10.0947 12.6373 9.55957 11.9772 9.55957C11.3171 9.55957 10.782 10.0947 10.782 10.7548C10.782 11.4149 11.3171 11.9501 11.9772 11.9501Z" fill="#E14242"/>
<path d="M16.8166 2.81139C17.4767 2.81139 18.0118 2.27626 18.0118 1.61614C18.0118 0.956028 17.4767 0.420898 16.8166 0.420898C16.1565 0.420898 15.6213 0.956028 15.6213 1.61614C15.6213 2.27626 16.1565 2.81139 16.8166 2.81139Z" fill="#E14242"/>
<path d="M6.4909 4.39733C7.15101 4.39733 7.68614 3.8622 7.68614 3.20208C7.68614 2.54197 7.15101 2.00684 6.4909 2.00684C5.83078 2.00684 5.29565 2.54197 5.29565 3.20208C5.29565 3.8622 5.83078 4.39733 6.4909 4.39733Z" fill="#E14242"/>
<path d="M8.21725 32.2692C7.91844 32.2692 7.68603 32.0368 7.68603 31.7463V17.0381L1.95881 10.8627C1.75961 10.6469 1.76791 10.3066 1.97541 10.1074C2.19952 9.90816 2.53154 9.91646 2.73074 10.1406L8.60736 16.4737C8.69867 16.565 8.74847 16.6978 8.74847 16.8223V31.738C8.74847 32.0451 8.51606 32.2692 8.21725 32.2692Z" fill="#E14242"/>
<path d="M11.3961 34.9997C11.0973 34.9997 10.8649 34.759 10.8649 34.4602V14.7967L2.79699 6.72883C2.58948 6.52962 2.58948 6.18101 2.79699 5.9818C3.0045 5.77429 3.33651 5.77429 3.54402 5.9818L11.7696 14.2074C11.8692 14.307 11.9273 14.4398 11.9273 14.5809V34.4602C11.9273 34.7507 11.6866 34.9997 11.3961 34.9997Z" fill="#E14242"/>
<path d="M14.9406 35.0002C14.6418 35.0002 14.4094 34.7595 14.4094 34.4607V7.90795C14.4094 7.76684 14.4592 7.62574 14.5671 7.53443L18.5596 3.54198C18.7671 3.34278 19.0991 3.34278 19.3066 3.54198C19.5141 3.74949 19.5141 4.0898 19.3066 4.28901L15.4719 8.13206V34.4607C15.4719 34.7512 15.2395 35.0002 14.9406 35.0002Z" fill="#E14242"/>
<path d="M18.3271 32.27C18.0283 32.27 17.7876 32.0459 17.7876 31.7471V17.8026C17.7876 17.6615 17.854 17.5286 17.9453 17.4373L24.8595 10.5232C25.0753 10.3074 25.4073 10.3074 25.6148 10.5232C25.8223 10.7224 25.8223 11.0627 25.6148 11.2702L18.8583 18.0267V31.7471C18.8583 32.0459 18.6259 32.27 18.3271 32.27Z" fill="#E14242"/>
<path d="M22.9503 13.7173C22.8092 13.7173 22.6764 13.6758 22.5768 13.5762L18.1859 9.18537C17.9784 8.96956 17.9784 8.63755 18.1859 8.43004C18.3851 8.22254 18.7254 8.22254 18.9412 8.43004L23.3238 12.8126C23.523 13.0284 23.523 13.3521 23.3238 13.5762C23.2159 13.6758 23.0748 13.7173 22.9503 13.7173Z" fill="#E14242"/>
<path d="M7.81894 11.2946C7.67783 11.2946 7.54503 11.2448 7.43713 11.1369C7.22962 10.9128 7.22962 10.5891 7.43713 10.3733L16.5011 1.30932C16.7086 1.09351 17.0489 1.09351 17.2564 1.30932C17.4639 1.51682 17.4639 1.84884 17.2564 2.05635L8.19245 11.1369C8.08455 11.2365 7.95174 11.2946 7.81894 11.2946Z" fill="#E14242"/>
<path d="M10.7736 8.32346C10.6408 8.32346 10.508 8.27366 10.4084 8.16576L6.68981 4.44722C6.4823 4.24801 6.4823 3.89939 6.68981 3.70019C6.88902 3.50098 7.22933 3.50098 7.43684 3.70019L11.1554 7.41873C11.3546 7.61794 11.3546 7.96655 11.1554 8.16576C11.0475 8.27366 10.9147 8.32346 10.7736 8.32346Z" fill="#E14242"/>
<path d="M10.7988 3.02721C11.4589 3.02721 11.994 2.49208 11.994 1.83196C11.994 1.17185 11.4589 0.636719 10.7988 0.636719C10.1386 0.636719 9.60352 1.17185 9.60352 1.83196C9.60352 2.49208 10.1386 3.02721 10.7988 3.02721Z" fill="#E14242"/>
<path d="M13.6208 5.47625C13.488 5.47625 13.3552 5.42645 13.2473 5.31855L10.9979 3.06916C10.7904 2.86996 10.7904 2.53794 10.9979 2.33044C11.2054 2.12293 11.5457 2.12293 11.7532 2.33044L14.0026 4.57982C14.2101 4.77903 14.2101 5.12764 14.0026 5.32685C13.8947 5.42645 13.7536 5.47625 13.6208 5.47625Z" fill="#E14242"/>
<path d="M14.8742 14.1408C14.7331 14.1408 14.6003 14.091 14.5007 13.9748L11.9774 11.4598C11.7699 11.2606 11.7699 10.9286 11.9774 10.7211C12.1766 10.5136 12.5169 10.5136 12.7327 10.7211L15.2477 13.2444C15.4552 13.4436 15.4552 13.7839 15.2477 13.9831C15.1398 14.091 15.007 14.1408 14.8742 14.1408Z" fill="#E14242"/>
<path d="M18.2856 14.4735C18.9457 14.4735 19.4808 13.9384 19.4808 13.2783C19.4808 12.6181 18.9457 12.083 18.2856 12.083C17.6255 12.083 17.0903 12.6181 17.0903 13.2783C17.0903 13.9384 17.6255 14.4735 18.2856 14.4735Z" fill="#E14242"/>
<path d="M20.647 15.8444C20.5142 15.8444 20.373 15.7863 20.2734 15.6784L18.4059 13.8192C18.1984 13.6034 18.1984 13.2796 18.4059 13.0638C18.6134 12.8563 18.9537 12.8563 19.1612 13.0638L21.0288 14.9231C21.2446 15.1389 21.2446 15.4709 21.0288 15.6784C20.9209 15.7863 20.7881 15.8444 20.647 15.8444Z" fill="#E14242"/>
<path d="M19.846 10.6299C19.7049 10.6299 19.5721 10.5801 19.4725 10.4639C19.265 10.2647 19.265 9.92438 19.4725 9.70857L22.3527 6.83666C22.5685 6.62085 22.9006 6.62085 23.1081 6.83666C23.3156 7.04417 23.3156 7.37618 23.1081 7.58369L20.2279 10.4639C20.1199 10.5801 19.9788 10.6299 19.846 10.6299Z" fill="#E14242"/>
<path d="M8.20917 21.4545C8.07636 21.4545 7.94356 21.4047 7.83565 21.2968L0.81359 14.2664C0.606082 14.0672 0.606082 13.7352 0.81359 13.5277C1.0211 13.3202 1.35311 13.3202 1.56892 13.5277L8.59098 20.5498C8.79849 20.749 8.79849 21.0976 8.59098 21.2968C8.49138 21.4047 8.35027 21.4545 8.20917 21.4545Z" fill="#E14242"/>
<path d="M3.37811 21.8944C4.03822 21.8944 4.57335 21.3593 4.57335 20.6992C4.57335 20.039 4.03822 19.5039 3.37811 19.5039C2.71799 19.5039 2.18286 20.039 2.18286 20.6992C2.18286 21.3593 2.71799 21.8944 3.37811 21.8944Z" fill="#E14242"/>
<path d="M8.20075 26.0522C8.05964 26.0522 7.92684 25.9941 7.81893 25.8862L2.99645 21.072C2.78894 20.8645 2.78894 20.5241 2.99645 20.3249C3.20396 20.1091 3.53597 20.1091 3.75178 20.3249L8.56596 25.1391C8.77347 25.3383 8.77347 25.6869 8.56596 25.8945C8.46636 25.9941 8.33355 26.0522 8.20075 26.0522Z" fill="#E14242"/>
<path d="M18.3852 22.6913C18.2441 22.6913 18.1113 22.6414 18.0034 22.5335C17.8042 22.326 17.8042 21.9857 18.0034 21.7865L24.0045 15.7937C24.2037 15.5779 24.5441 15.5779 24.7516 15.7937C24.9508 15.9929 24.9508 16.3249 24.7516 16.5407L18.7587 22.5418C18.6591 22.6414 18.518 22.6913 18.3852 22.6913Z" fill="#E14242"/>
<path d="M18.3272 26.8826C18.1944 26.8826 18.0533 26.8411 17.9537 26.7332C17.7462 26.5174 17.7462 26.1936 17.9537 25.9778L21.2988 22.6328C21.498 22.4336 21.8383 22.4336 22.0541 22.6328C22.2533 22.8486 22.2533 23.1806 22.0541 23.3964L18.7091 26.7332C18.6012 26.8494 18.46 26.8826 18.3272 26.8826Z" fill="#E14242"/>
<path d="M46.7036 19.5232C46.3561 20.2431 45.8596 20.7892 45.1646 21.1119L47.2497 25.7041C47.3242 25.8531 47.2249 26.002 47.0759 26.002H44.0227C43.9234 26.002 43.8738 25.9524 43.849 25.8779L41.9128 21.658H40.6468V25.7786C40.6468 25.9027 40.5475 26.002 40.4234 26.002H37.5688C37.4695 26.002 37.395 25.9027 37.395 25.7786V9.84232C37.395 9.71821 37.4695 9.61891 37.5688 9.61891H42.7319C45.4873 9.61891 47.1504 11.1828 47.1504 14.087V17.2147C47.1504 18.0835 47.0015 18.9027 46.7036 19.5232ZM43.8986 16.4452V14.8317C43.8986 13.0941 43.2532 12.9204 41.3667 12.9204H40.6468V18.4062H41.3667C42.9305 18.4062 43.849 18.3814 43.8986 16.4452ZM39.2071 24.4878V20.2431H40.9943H42.7816L44.8667 24.5375C44.9164 24.6616 45.2142 24.6119 45.1398 24.3885L43.0546 20.1686C44.9908 19.8956 45.661 18.8778 45.661 17.041V13.9381C45.661 11.2076 43.1788 10.9842 42.4092 10.9842H39.0582C39.0085 10.9842 38.9092 11.0586 38.9092 11.1331V24.4878C38.9092 24.6616 39.2071 24.6616 39.2071 24.4878ZM45.3632 13.9381V17.041C45.3632 19.5729 43.7497 19.9204 42.1858 19.9204H39.2071V11.3069H42.4092C45.0901 11.3069 45.3632 13.1189 45.3632 13.9381ZM56.9306 9.39551C59.0654 9.39551 60.5548 9.86714 61.498 10.8849C62.2427 11.704 62.5902 12.8707 62.5902 14.5338V21.0623C62.5902 22.775 62.2427 23.9665 61.498 24.7609C60.5299 25.7538 59.0654 26.2502 56.9306 26.2502C54.7214 26.2502 53.2817 25.7538 52.3384 24.7609C51.6185 23.9665 51.2214 22.775 51.2214 21.0623V14.5338C51.2214 12.8707 51.6185 11.704 52.3384 10.8601C53.3065 9.86714 54.771 9.39551 56.9306 9.39551ZM59.2888 20.3176V15.353C59.2888 13.1686 58.1221 12.7218 57.0547 12.7218H56.7569C55.1682 12.7218 54.5476 13.7395 54.5476 15.353V20.3176C54.5476 22.502 55.7143 22.9736 56.7569 22.9736H57.0547C58.6434 22.9736 59.264 21.9062 59.2888 20.3176ZM52.7852 14.7076V20.8637C52.7852 22.0304 53.0831 22.9984 53.7781 23.7183C54.4235 24.3637 55.4164 24.7112 56.6328 24.7112H57.2781C59.6115 24.7112 61.1257 23.2219 61.1257 20.8637V14.7076C61.1257 12.1757 59.7853 10.8104 57.2781 10.8104H56.6328C54.1008 10.8104 52.7852 12.1757 52.7852 14.7076ZM57.2781 24.3885H56.6328C55.4661 24.3885 54.5973 24.0907 53.9767 23.4701C53.3561 22.8495 53.0334 21.9807 53.0334 20.8637V14.7076C53.0334 12.3494 54.2994 11.1083 56.6328 11.1083H57.2781C59.6363 11.1083 60.803 12.3246 60.803 14.7076V20.8637C60.803 21.9062 60.4803 22.8495 59.8101 23.4949C59.1647 24.041 58.2959 24.3885 57.2781 24.3885ZM74.8279 20.2679V9.84232C74.8279 9.71821 74.9272 9.61891 75.0513 9.61891H77.8811C78.0052 9.61891 78.1045 9.71821 78.1045 9.84232V21.0623C78.1045 24.6368 76.1435 26.2502 72.4449 26.2502C68.9449 26.2502 66.7605 24.8602 66.7605 21.0623V9.84232C66.7605 9.71821 66.8598 9.61891 66.9839 9.61891H69.8385C69.9626 9.61891 70.0619 9.71821 70.0619 9.84232V20.2679C70.0619 22.4275 71.2783 22.8992 72.296 22.8992H72.5939C74.1329 22.8992 74.8279 21.8566 74.8279 20.2679ZM68.2995 11.2076V20.8637C68.2995 23.0977 69.8137 24.7112 72.1719 24.7112H72.7924C75.1506 24.7112 76.6896 23.0233 76.6896 20.8637V11.2076C76.6896 10.9842 76.3918 10.9593 76.3918 11.2076V20.8637C76.3918 22.8992 74.9272 24.3885 72.7924 24.3885H72.1719C70.0868 24.3885 68.5974 23.0481 68.5974 20.8637V11.2076C68.5974 10.9842 68.2995 10.9842 68.2995 11.2076ZM89.3493 9.84232C89.3493 9.71821 89.4486 9.61891 89.5727 9.61891H92.4273C92.5515 9.61891 92.6508 9.71821 92.6508 9.84232V25.7786C92.6508 25.9027 92.5515 26.002 92.4273 26.002H89.672C89.5727 26.002 89.4734 25.9524 89.4486 25.8779L85.8245 17.7112V25.7786C85.8245 25.9027 85.7252 26.002 85.6011 26.002H82.7712C82.6471 26.002 82.5727 25.9027 82.5727 25.7786V9.84232C82.5727 9.71821 82.6471 9.61891 82.7712 9.61891H85.7003C85.7996 9.61891 85.8493 9.69338 85.8741 9.74303L89.3493 17.7608V9.84232ZM91.1366 24.5126V11.1083C91.1366 10.9345 90.8139 10.8849 90.8139 11.1083V23.8672L84.3351 11.0586C84.2606 10.9593 84.062 10.9593 84.062 11.1083V24.4878C84.062 24.7112 84.3599 24.7112 84.3599 24.4878V11.7537L90.8139 24.5375C90.9132 24.7112 91.1366 24.6616 91.1366 24.5126ZM103.722 9.61891C105.41 9.61891 106.676 10.0905 107.52 11.009C108.264 11.8282 108.637 13.0445 108.637 14.5338V21.1119C108.637 24.1155 106.899 26.002 103.722 26.002H97.516C97.3919 26.002 97.3175 25.9027 97.3175 25.7786V9.84232C97.3175 9.71821 97.3919 9.61891 97.516 9.61891H103.722ZM105.385 20.3672V15.2785C105.385 13.7147 104.566 12.7218 102.828 12.7218H100.594V22.8992H102.828C104.318 22.8992 105.385 21.9311 105.385 20.3672ZM98.8316 11.1331V24.4878C98.8316 24.5871 98.9309 24.6119 98.9806 24.6119H103.027C105.881 24.6119 107.172 22.8992 107.172 21.3105V14.9558C107.172 12.3246 105.782 10.9842 102.952 10.9842H98.9806C98.9309 10.9842 98.8316 11.009 98.8316 11.1331ZM106.874 14.9558V21.3105C106.874 23.2963 104.888 24.3389 103.027 24.3389H99.1295V11.3069H102.952C105.559 11.3069 106.874 12.4735 106.874 14.9558ZM119.385 9.61891C121.073 9.61891 122.339 10.0905 123.183 11.009C123.928 11.8282 124.3 13.0445 124.3 14.5338V21.1119C124.3 24.1155 122.562 26.002 119.385 26.002H113.179C113.055 26.002 112.981 25.9027 112.981 25.7786V9.84232C112.981 9.71821 113.055 9.61891 113.179 9.61891H119.385ZM121.048 20.3672V15.2785C121.048 13.7147 120.229 12.7218 118.491 12.7218H116.257V22.8992H118.491C119.981 22.8992 121.048 21.9311 121.048 20.3672ZM114.495 11.1331V24.4878C114.495 24.5871 114.594 24.6119 114.644 24.6119H118.69C121.545 24.6119 122.835 22.8992 122.835 21.3105V14.9558C122.835 12.3246 121.445 10.9842 118.615 10.9842H114.644C114.594 10.9842 114.495 11.009 114.495 11.1331ZM122.537 14.9558V21.3105C122.537 23.2963 120.552 24.3389 118.69 24.3389H114.793V11.3069H118.615C121.222 11.3069 122.537 12.4735 122.537 14.9558ZM128.843 26.002C128.718 26.002 128.644 25.9027 128.644 25.7786V9.84232C128.644 9.71821 128.718 9.61891 128.843 9.61891H131.672C131.796 9.61891 131.896 9.71821 131.896 9.84232V25.7786C131.896 25.9027 131.796 26.002 131.672 26.002H128.843ZM130.133 11.1083V24.4878C130.133 24.7112 130.406 24.7112 130.406 24.4878V11.1083C130.406 10.9345 130.133 10.9345 130.133 11.1083ZM141.601 20.0445C141.477 20.0445 141.378 19.9452 141.378 19.8211V17.1651C141.378 17.041 141.477 16.9417 141.601 16.9417H147.286C147.41 16.9417 147.509 17.041 147.509 17.1651V21.0623C147.509 24.7112 145.548 26.2502 141.85 26.2502C138.399 26.2502 136.14 24.885 136.14 21.0623V14.5338C136.14 10.9345 138.151 9.39551 141.85 9.39551C145.325 9.39551 147.509 10.7359 147.509 14.5338V15.0551C147.509 15.1792 147.41 15.2785 147.286 15.2785H144.431C144.307 15.2785 144.208 15.1792 144.208 15.0551V14.7324C144.208 13.2182 143.24 12.7218 141.974 12.7218H141.676C140.857 12.7218 140.311 12.9452 139.938 13.4416C139.591 13.9133 139.467 14.5338 139.467 15.353V20.2679C139.467 22.4275 140.633 22.8992 141.676 22.8992H141.974C143.488 22.8992 144.208 21.8566 144.208 20.2679V20.0445H141.601ZM137.655 20.8885C137.655 23.6438 138.995 24.6616 141.825 24.6616C144.804 24.6616 146.02 23.4204 146.02 20.3672V18.5055C146.02 18.431 145.97 18.3317 145.921 18.3317H142.47C142.247 18.3317 142.297 18.6544 142.47 18.6544H145.722V20.3672C145.722 23.0233 144.704 24.3885 141.825 24.3885C139.442 24.3885 137.953 23.5445 137.953 20.8885V14.9062C137.953 12.3494 139.119 11.2076 141.825 11.2076C143.836 11.2076 145.672 12.3246 145.523 14.0374C145.523 14.236 145.797 14.2856 145.846 14.0622C145.846 11.8778 143.86 10.9345 141.825 10.9345C139.343 10.9345 137.655 11.8282 137.655 14.9062V20.8885ZM151.928 26.002C151.804 26.002 151.729 25.9027 151.729 25.7786V9.84232C151.729 9.71821 151.804 9.61891 151.928 9.61891H154.758C154.882 9.61891 154.981 9.71821 154.981 9.84232V25.7786C154.981 25.9027 154.882 26.002 154.758 26.002H151.928ZM153.219 11.1083V24.4878C153.219 24.7112 153.492 24.7112 153.492 24.4878V11.1083C153.492 10.9345 153.219 10.9345 153.219 11.1083ZM162.105 12.7218H158.58C158.456 12.7218 158.357 12.6225 158.357 12.4984V9.84232C158.357 9.71821 158.456 9.61891 158.58 9.61891H168.931C169.056 9.61891 169.155 9.71821 169.155 9.84232V12.4984C169.155 12.6225 169.056 12.7218 168.931 12.7218H165.407V25.7786C165.407 25.9027 165.307 26.002 165.183 26.002H162.329C162.204 26.002 162.105 25.9027 162.105 25.7786V12.7218ZM167.417 10.9842H159.921C159.747 10.9842 159.747 11.3069 159.921 11.3069H163.595V24.463C163.595 24.6368 163.917 24.6368 163.917 24.463V11.3069H167.417C167.665 11.3069 167.641 10.9842 167.417 10.9842ZM175.733 9.76785C175.758 9.69338 175.807 9.61891 175.907 9.61891H178.985C179.084 9.61891 179.134 9.69338 179.158 9.76785L183.453 25.729C183.478 25.8779 183.378 26.002 183.229 26.002H180.4C180.325 26.002 180.251 25.9524 180.226 25.8531L179.258 22.3779H175.634L174.69 25.8531C174.666 25.9524 174.616 26.002 174.517 26.002H171.662C171.513 26.002 171.414 25.8779 171.439 25.729L175.733 9.76785ZM176.428 19.2998H178.488L177.421 15.5516L176.428 19.2998ZM180.251 20.7644L181.393 24.4878C181.442 24.6368 181.715 24.6119 181.641 24.4134L177.669 11.2076C177.595 10.8849 177.173 10.8601 177.098 11.2076L173.251 24.4134C173.176 24.5871 173.449 24.6616 173.524 24.5126L174.616 20.7644H180.251ZM174.69 20.4417L177.396 11.3069L180.151 20.4417H174.69ZM189.956 9.61891C190.081 9.61891 190.18 9.71821 190.18 9.84232V22.8743H195.542C195.666 22.8743 195.765 22.9736 195.765 23.0977V25.7786C195.765 25.9027 195.666 26.002 195.542 26.002H187.127C187.003 26.002 186.928 25.9027 186.928 25.7786V9.84232C186.928 9.71821 187.003 9.61891 187.127 9.61891H189.956ZM188.417 11.1331V24.4878C188.417 24.5375 188.467 24.6119 188.566 24.6119H194.3C194.499 24.6119 194.499 24.2892 194.3 24.2892H188.69V11.1331C188.69 10.9593 188.417 10.9345 188.417 11.1331Z" fill="white"/>
</svg>
